<?xml version="1.0" standalone="no"?>
<!DOCTYPE svg PUBLIC "-//W3C//DTD SVG 20010904//EN"
 "http://www.w3.org/TR/2001/REC-SVG-20010904/DTD/svg10.dtd">
<svg version="1.0" xmlns="http://www.w3.org/2000/svg"
 width="411.000000pt" height="411.000000pt" viewBox="0 0 411.000000 411.000000"
 preserveAspectRatio="xMidYMid meet">
<metadata>
Created by potrace 1.11, written by Peter Selinger 2001-2013
</metadata>
<g transform="translate(0.000000,411.000000) scale(0.100000,-0.100000)"
fill="#000000" stroke="none">
<path d="M1670 3518 c-19 -6 -46 -19 -59 -31 -30 -28 -132 -183 -207 -317 -52
-91 -204 -393 -204 -404 0 -2 -20 -46 -44 -97 -147 -315 -308 -734 -491 -1279
-115 -345 -135 -397 -177 -482 -37 -76 -55 -85 -101 -50 -43 32 -59 63 -92
177 -27 93 -47 130 -77 146 -57 31 -109 13 -145 -49 -23 -39 -27 -58 -28 -121
0 -42 3 -93 7 -115 10 -61 66 -160 123 -219 84 -86 165 -114 268 -90 162 36
230 144 383 601 31 92 59 171 64 175 4 5 24 -3 44 -17 123 -83 357 -112 536
-67 45 12 132 43 180 64 14 6 27 12 31 13 3 2 4 -50 3 -114 -3 -203 -6 -506
-5 -530 0 -13 16 -39 35 -58 29 -29 41 -34 80 -34 38 0 52 6 82 33 43 39 40 6
49 506 5 300 7 336 23 348 75 58 184 134 187 131 2 -2 -1 -21 -6 -43 -6 -22
-12 -116 -14 -210 -4 -131 -1 -187 11 -245 32 -152 91 -267 185 -358 57 -55
70 -64 156 -106 181 -88 427 -79 651 25 83 38 190 105 247 154 160 137 287
327 287 430 0 119 -117 197 -227 151 -43 -18 -55 -30 -137 -136 -98 -126 -176
-194 -294 -253 -135 -68 -247 -84 -350 -48 -132 46 -194 190 -188 440 8 286
99 621 253 932 79 157 147 254 261 369 177 180 351 260 493 228 55 -12 160
-64 186 -92 l21 -23 -50 -32 c-56 -36 -124 -105 -148 -148 -24 -46 -21 -124 8
-165 37 -55 74 -72 150 -72 195 2 327 186 256 356 l-16 36 93 58 c50 32 103
67 117 77 l25 19 -55 -6 c-30 -3 -92 -17 -137 -30 -81 -23 -103 -21 -103 10 0
22 -109 122 -171 157 -123 68 -229 86 -359 61 -70 -13 -195 -59 -221 -81 -8
-7 -20 -13 -25 -13 -5 0 -48 -29 -96 -63 -93 -67 -202 -167 -277 -257 -25 -30
-48 -57 -51 -60 -11 -10 -76 -106 -116 -170 -55 -87 -144 -259 -180 -345 -21
-51 -43 -84 -82 -122 -50 -49 -190 -165 -273 -227 l-37 -27 5 138 c8 228 8
680 -1 813 -23 387 -35 474 -82 621 -36 112 -94 157 -174 137z m35 -307 c13
-21 25 -121 32 -259 13 -250 9 -539 -12 -907 -3 -38 -7 -142 -11 -230 -6 -156
-7 -161 -33 -186 -31 -32 -220 -112 -326 -139 -148 -38 -339 -28 -390 20 l-23
22 35 101 c32 94 39 107 92 157 64 61 155 102 256 118 93 15 152 6 261 -39 74
-30 89 31 23 92 -78 72 -249 86 -405 34 -43 -14 -83 -31 -88 -36 -6 -5 -13 -9
-17 -9 -12 0 215 554 295 719 14 30 26 61 26 68 0 7 5 13 12 13 6 0 9 3 6 6
-7 7 122 271 189 386 41 72 63 92 78 69z m2044 -524 c-11 -40 -28 -57 -74 -78
-45 -21 -54 -22 -73 -10 -24 15 12 66 80 111 56 37 63 39 69 23 3 -10 2 -31
-2 -46z"/>
</g>
</svg>
