<svg xmlns="http://www.w3.org/2000/svg" viewBox="0 0 512 512"><defs><linearGradient id="a" gradientTransform="rotate(45)" gradientUnits="userSpaceOnUse"><stop offset="0" stop-color="#1babfea6"/><stop offset="1" stop-color="#2430dfa6"/></linearGradient></defs><g fill="url(#a)"><circle cx="128" cy="128" r="11.636"/><circle cx="384" cy="128" r="11.636"/><circle cx="128" cy="384" r="11.636"/><circle cx="384" cy="384" r="11.636"/><path d="M500.364 232.727c6.435 0 11.636-5.213 11.636-11.636 0-6.423-5.201-11.636-11.636-11.636h-58.182V162.91h58.182c6.435 0 11.636-5.213 11.636-11.636 0-6.423-5.201-11.636-11.636-11.636h-58.182V128c0-32.081-26.1-58.182-58.182-58.182h-11.636V11.636C372.364 5.213 367.162 0 360.727 0c-6.435 0-11.636 5.213-11.636 11.636v58.182h-46.545V11.636C302.545 5.213 297.344 0 290.909 0c-6.435 0-11.636 5.213-11.636 11.636v58.182h-46.545V11.636C232.727 5.213 227.526 0 221.091 0c-6.435 0-11.636 5.213-11.636 11.636v58.182H162.91V11.636C162.909 5.213 157.708 0 151.273 0c-6.435 0-11.636 5.213-11.636 11.636v58.182H128c-32.081 0-58.182 26.1-58.182 58.182v11.636H11.636C5.201 139.636 0 144.849 0 151.273c0 6.423 5.201 11.636 11.636 11.636h58.182v46.545H11.636C5.201 209.455 0 214.668 0 221.091s5.201 11.636 11.636 11.636h58.182v46.545H11.636C5.201 279.273 0 284.486 0 290.909s5.201 11.636 11.636 11.636h58.182v46.545H11.636C5.201 349.091 0 354.304 0 360.727s5.201 11.636 11.636 11.636h58.182V384c0 32.081 26.1 58.182 58.182 58.182h11.636v58.182c0 6.423 5.201 11.636 11.636 11.636s11.636-5.213 11.636-11.636v-58.182h46.545v58.182c0 6.423 5.201 11.636 11.636 11.636s11.636-5.213 11.636-11.636v-58.182h46.545v58.182c0 6.423 5.201 11.636 11.636 11.636s11.636-5.213 11.636-11.636v-58.182h46.545v58.182c0 6.423 5.201 11.636 11.636 11.636s11.636-5.213 11.636-11.636v-58.182H384c32.081 0 58.182-26.1 58.182-58.182v-11.636h58.182c6.435 0 11.636-5.213 11.636-11.636s-5.201-11.636-11.636-11.636h-69.818c-6.435 0-11.636 5.213-11.636 11.636V384c0 19.247-15.663 34.909-34.909 34.909H128c-19.247 0-34.909-15.663-34.909-34.909V128c0-19.247 15.663-34.909 34.909-34.909h256c19.247 0 34.909 15.663 34.909 34.909v186.182c0 6.423 5.201 11.636 11.636 11.636s11.636-5.213 11.636-11.636v-11.636h58.182c6.435 0 11.636-5.213 11.636-11.636s-5.201-11.636-11.636-11.636h-58.182v-46.545h58.183z"/><path d="M221.091 186.182c-19.247 0-34.909 15.663-34.909 34.909 0 15.151 9.763 27.951 23.273 32.768v95.232h-34.909c-6.412 0-11.625-5.225-11.625-11.636v-162.91c0-6.412 5.213-11.636 11.636-11.636h69.807c6.435 0 11.636-5.213 11.636-11.636 0-6.423-5.201-11.636-11.636-11.636h-69.807c-19.247 0-34.909 15.663-34.909 34.909v162.909c0 19.247 15.663 34.909 34.897 34.909h46.545c6.435 0 11.636-5.213 11.636-11.636V253.859c13.51-4.817 23.273-17.617 23.273-32.768.001-19.247-15.662-34.909-34.908-34.909zm0 46.545c-6.423 0-11.636-5.225-11.636-11.636 0-6.412 5.213-11.636 11.636-11.636 6.423 0 11.636 5.225 11.636 11.636 0 6.412-5.213 11.636-11.636 11.636zm116.352-93.091h-46.534c-6.435 0-11.636 5.213-11.636 11.636V258.14C265.763 262.959 256 275.759 256 290.909c0 19.247 15.663 34.909 34.909 34.909 19.247 0 34.909-15.663 34.909-34.909 0-15.151-9.763-27.951-23.273-32.768v-95.232h34.897c6.423 0 11.636 5.225 11.636 11.636v162.909c0 6.412-5.213 11.636-11.636 11.636h-69.807c-6.435 0-11.636 5.213-11.636 11.636s5.201 11.636 11.636 11.636h69.807c19.247 0 34.909-15.663 34.909-34.909V174.545c.001-19.246-15.662-34.909-34.908-34.909zm-46.534 162.909c-6.423 0-11.636-5.225-11.636-11.636 0-6.412 5.213-11.636 11.636-11.636s11.636 5.225 11.636 11.636c0 6.412-5.213 11.636-11.636 11.636z"/></g></svg>