<svg xmlns="http://www.w3.org/2000/svg" width="634" height="558" viewBox="0 0 634 558"><defs><style>.a{fill:#fff;}.b,.c,.d{fill:none;stroke:#000;stroke-width:25px;}.b,.c{stroke-miterlimit:10;}.c,.d{stroke-linecap:round;}.d{stroke-linejoin:round;}</style></defs><title>Untitled-2</title><rect class="a" x="12.5" y="12.5" width="609" height="533" rx="87.5"/><path d="M889,140a75.29,75.29,0,0,1,75,75V573a75.29,75.29,0,0,1-75,75H455a75.29,75.29,0,0,1-75-75V215a75.29,75.29,0,0,1,75-75H889m0-25H455c-55,0-100,45-100,100V573c0,55,45,100,100,100H889c55,0,100-45,100-100V215c0-55-45-100-100-100Z" transform="translate(-355 -115)"/><line class="b" x1="18.5" y1="177.78" x2="613.5" y2="177.78"/><circle class="b" cx="95" cy="98" r="21.5"/><circle class="b" cx="175" cy="98" r="21.5"/><circle class="b" cx="255" cy="98" r="21.5"/><line class="c" x1="289.97" y1="443.97" x2="342.36" y2="247.5"/><path class="d" d="M594.12,404.39l-62.12,58,65.46,61.09" transform="translate(-355 -115)"/><path class="d" d="M752.88,404.05,815,462l-65.46,61.09" transform="translate(-355 -115)"/></svg>