<svg xmlns="http://www.w3.org/2000/svg" viewBox="0 0 634 558"><defs><linearGradient id="a" gradientTransform="rotate(45)" gradientUnits="userSpaceOnUse"><stop offset="0" stop-color="#1babfea6"/><stop offset="1" stop-color="#2430dfa6"/></linearGradient></defs><g fill="url(#a)" stroke="url(#a)"><rect x="12.5" y="12.5" width="609" height="533" rx="87.5" fill="#fff"/><path d="M534 25a75.29 75.29 0 0175 75v358a75.29 75.29 0 01-75 75H100a75.29 75.29 0 01-75-75V100a75.29 75.29 0 0175-75h434m0-25H100C45 0 0 45 0 100v358c0 55 45 100 100 100h434c55 0 100-45 100-100V100C634 45 589 0 534 0z"/><path stroke-miterlimit="10" stroke-width="25" d="M18.5 177.78h595"/><circle cx="95" cy="98" r="21.5" fill="none" stroke-miterlimit="10" stroke-width="25"/><circle cx="175" cy="98" r="21.5" fill="none" stroke-miterlimit="10" stroke-width="25"/><circle cx="255" cy="98" r="21.5" fill="none" stroke-miterlimit="10" stroke-width="25"/><path fill="none" stroke-linecap="round" stroke-miterlimit="10" stroke-width="25" d="M289.97 443.97l52.39-196.47"/><path d="M239.12 289.39l-62.12 58 65.46 61.09M397.88 289.05L460 347l-65.46 61.09" fill="none" stroke-linecap="round" stroke-linejoin="round" stroke-width="25"/></g></svg>